<svg width="24" height="24" viewBox="0 0 24 24" fill="none" xmlns="http://www.w3.org/2000/svg">
<path d="M0 0H24V24H0V0Z" stroke="#E5E7EB"/>
<path d="M10.6172 4.35469C11.2875 6.36562 10.6031 8.39531 9.08906 8.89219C7.575 9.38906 5.80313 8.16094 5.13281 6.15C4.4625 4.13906 5.14688 2.10937 6.66094 1.6125C8.175 1.11562 9.94687 2.34375 10.6172 4.35469ZM4.70625 9.30937C5.59219 10.8281 5.37656 12.5953 4.22812 13.2516C3.07969 13.9078 1.42969 13.2094 0.548437 11.6906C-0.332813 10.1719 -0.126563 8.40469 1.02187 7.74844C2.17031 7.09219 3.82031 7.79062 4.70156 9.30937H4.70625ZM3.24375 18.8062C5.7 12.1828 10.0641 10.5 12 10.5C13.9359 10.5 18.3 12.1828 20.7562 18.8062C20.925 19.2609 21 19.7484 21 20.2359V20.3109C21 21.5203 20.0203 22.5 18.8109 22.5C18.2719 22.5 17.7375 22.4344 17.2172 22.3031L13.0922 21.2719C12.375 21.0937 11.625 21.0937 10.9078 21.2719L6.78281 22.3031C6.2625 22.4344 5.72812 22.5 5.18906 22.5C3.97969 22.5 3 21.5203 3 20.3109V20.2359C3 19.7484 3.075 19.2609 3.24375 18.8062ZM19.7719 13.2516C18.6234 12.5953 18.4078 10.8281 19.2938 9.30937C20.1797 7.79062 21.825 7.09219 22.9734 7.74844C24.1219 8.40469 24.3375 10.1719 23.4516 11.6906C22.5656 13.2094 20.9203 13.9078 19.7719 13.2516ZM14.5359 8.89219C13.0219 8.39531 12.3375 6.36562 13.0078 4.35469C13.6781 2.34375 15.45 1.11562 16.9641 1.6125C18.4781 2.10937 19.1625 4.13906 18.4922 6.15C17.8219 8.16094 16.05 9.38906 14.5359 8.89219Z" fill="#2563EB"/>
</svg>
