<svg width="36" height="36" viewBox="0 0 36 36" fill="none" xmlns="http://www.w3.org/2000/svg">
<path d="M0 0H36V36H0V0Z" stroke="#E5E7EB"/>
<path d="M0 13.5C0 11.018 2.01797 9 4.5 9C4.53516 9 4.57734 9 4.6125 9C5.13281 6.43359 7.40391 4.5 10.125 4.5C11.1797 4.5 12.1641 4.78828 13.0008 5.2875C13.9359 3.4875 15.8273 2.25 18 2.25C20.1727 2.25 22.0641 3.4875 22.9992 5.2875C23.8359 4.78828 24.8203 4.5 25.875 4.5C28.5961 4.5 30.8672 6.43359 31.3875 9C31.4227 9 31.4648 9 31.5 9C33.982 9 36 11.018 36 13.5C36 14.3227 35.782 15.0891 35.3953 15.75H0.604688C0.217969 15.0891 0 14.3227 0 13.5ZM0 19.9266C0 18.8648 0.864844 18 1.92656 18H34.0734C35.1352 18 36 18.8648 36 19.9266C36 24.8836 32.8781 29.1164 28.4977 30.7617L28.3711 31.7812C28.2305 32.9062 27.2742 33.75 26.1352 33.75H9.85781C8.72578 33.75 7.7625 32.9062 7.62188 31.7812L7.49531 30.7688C3.12187 29.1164 0 24.8836 0 19.9266Z" fill="#2563EB"/>
</svg>
