<svg width="37" height="36" viewBox="0 0 37 36" fill="none" xmlns="http://www.w3.org/2000/svg">
<g clip-path="url(#clip0_1_377)">
<path d="M18.9844 3.375C10.9055 3.375 4.35938 9.92109 4.35938 18V20.8125C4.35938 21.7477 3.60703 22.5 2.67188 22.5C1.73672 22.5 0.984375 21.7477 0.984375 20.8125V18C0.984375 8.05781 9.04219 0 18.9844 0C28.9266 0 36.9844 8.05781 36.9844 18V28.132C36.9844 31.5492 34.2141 34.3195 30.7898 34.3195L23.0344 34.3125C22.4508 35.318 21.3609 36 20.1094 36H17.8594C15.9961 36 14.4844 34.4883 14.4844 32.625C14.4844 30.7617 15.9961 29.25 17.8594 29.25H20.1094C21.3609 29.25 22.4508 29.932 23.0344 30.9375L30.7969 30.9445C32.3508 30.9445 33.6094 29.6859 33.6094 28.132V18C33.6094 9.92109 27.0633 3.375 18.9844 3.375ZM11.1094 14.625H12.2344C13.4789 14.625 14.4844 15.6305 14.4844 16.875V24.75C14.4844 25.9945 13.4789 27 12.2344 27H11.1094C8.62734 27 6.60938 24.982 6.60938 22.5V19.125C6.60938 16.643 8.62734 14.625 11.1094 14.625ZM26.8594 14.625C29.3414 14.625 31.3594 16.643 31.3594 19.125V22.5C31.3594 24.982 29.3414 27 26.8594 27H25.7344C24.4898 27 23.4844 25.9945 23.4844 24.75V16.875C23.4844 15.6305 24.4898 14.625 25.7344 14.625H26.8594Z" fill="#2563EB"/>
</g>
<defs>
<clipPath id="clip0_1_377">
<path d="M0.984375 0H36.9844V36H0.984375V0Z" fill="white"/>
</clipPath>
</defs>
</svg>
