<svg width="14" height="16" viewBox="0 0 14 16" fill="none" xmlns="http://www.w3.org/2000/svg">
<g clip-path="url(#clip0_1_527)">
<path d="M7.00313 4.40635C5.01563 4.40635 3.4125 6.00947 3.4125 7.99697C3.4125 9.98447 5.01563 11.5876 7.00313 11.5876C8.99063 11.5876 10.5938 9.98447 10.5938 7.99697C10.5938 6.00947 8.99063 4.40635 7.00313 4.40635ZM7.00313 10.3313C5.71875 10.3313 4.66875 9.28447 4.66875 7.99697C4.66875 6.70947 5.71563 5.6626 7.00313 5.6626C8.29063 5.6626 9.3375 6.70947 9.3375 7.99697C9.3375 9.28447 8.2875 10.3313 7.00313 10.3313ZM11.5781 4.25947C11.5781 4.7251 11.2031 5.09697 10.7406 5.09697C10.275 5.09697 9.90313 4.72197 9.90313 4.25947C9.90313 3.79697 10.2781 3.42197 10.7406 3.42197C11.2031 3.42197 11.5781 3.79697 11.5781 4.25947ZM13.9563 5.10947C13.9031 3.9876 13.6469 2.99385 12.825 2.1751C12.0063 1.35635 11.0125 1.1001 9.89063 1.04385C8.73438 0.978223 5.26875 0.978223 4.1125 1.04385C2.99375 1.09697 2 1.35322 1.17813 2.17197C0.356252 2.99072 0.103127 3.98447 0.0468765 5.10635C-0.0187485 6.2626 -0.0187485 9.72822 0.0468765 10.8845C0.100002 12.0063 0.356252 13.0001 1.17813 13.8188C2 14.6376 2.99063 14.8938 4.1125 14.9501C5.26875 15.0157 8.73438 15.0157 9.89063 14.9501C11.0125 14.897 12.0063 14.6407 12.825 13.8188C13.6438 13.0001 13.9 12.0063 13.9563 10.8845C14.0219 9.72822 14.0219 6.26572 13.9563 5.10947ZM12.4625 12.1251C12.2188 12.7376 11.7469 13.2095 11.1313 13.4563C10.2094 13.822 8.02188 13.7376 7.00313 13.7376C5.98438 13.7376 3.79375 13.8188 2.875 13.4563C2.2625 13.2126 1.79063 12.7407 1.54375 12.1251C1.17813 11.2032 1.2625 9.01572 1.2625 7.99697C1.2625 6.97822 1.18125 4.7876 1.54375 3.86885C1.7875 3.25635 2.25938 2.78447 2.875 2.5376C3.79688 2.17197 5.98438 2.25635 7.00313 2.25635C8.02188 2.25635 10.2125 2.1751 11.1313 2.5376C11.7438 2.78135 12.2156 3.25322 12.4625 3.86885C12.8281 4.79072 12.7438 6.97822 12.7438 7.99697C12.7438 9.01572 12.8281 11.2063 12.4625 12.1251Z" fill="#9CA3AF"/>
</g>
<defs>
<clipPath id="clip0_1_527">
<path d="M0 0H14V16H0V0Z" fill="white"/>
</clipPath>
</defs>
</svg>
