<svg width="37" height="36" viewBox="0 0 37 36" fill="none" xmlns="http://www.w3.org/2000/svg">
<path d="M0.65625 0H36.6562V36H0.65625V0Z" stroke="#E5E7EB"/>
<path d="M4.06641 15.75H3.46875C2.53359 15.75 1.78125 14.9977 1.78125 14.0625V5.06252C1.78125 4.38048 2.18906 3.76173 2.82187 3.50158C3.45469 3.24142 4.17891 3.38205 4.66406 3.8672L7.58906 6.7922C13.7484 0.710172 23.6695 0.731266 29.7937 6.86252C35.9461 13.0149 35.9461 22.9852 29.7937 29.1375C23.6414 35.2899 13.6711 35.2899 7.51875 29.1375C6.63984 28.2586 6.63984 26.8313 7.51875 25.9524C8.39766 25.0735 9.825 25.0735 10.7039 25.9524C15.0984 30.3469 22.2211 30.3469 26.6156 25.9524C31.0102 21.5578 31.0102 14.4352 26.6156 10.0406C22.2422 5.6672 15.1758 5.64611 10.7742 9.97033L13.6641 12.8672C14.1492 13.3524 14.2898 14.0766 14.0297 14.7094C13.7695 15.3422 13.1508 15.75 12.4688 15.75H4.06641Z" fill="#2563EB"/>
</svg>
