<svg width="42" height="36" viewBox="0 0 42 36" fill="none" xmlns="http://www.w3.org/2000/svg">
<g clip-path="url(#clip0_1_498)">
<path d="M22.5188 11.1445L24.143 1.39219C24.2766 0.590625 24.9727 0 25.7883 0C26.3156 0 26.8078 0.246094 27.1242 0.667969L28.3125 2.25H31.9758C32.8688 2.25 33.7266 2.60859 34.3594 3.24141L35.625 4.5H39.5625C40.4977 4.5 41.25 5.25234 41.25 6.1875V7.875C41.25 10.9828 38.7328 13.5 35.625 13.5H33.375H32.25H30.7523L30.3938 15.6445L22.5188 11.1445ZM30 18.007V33.75C30 34.9945 28.9945 36 27.75 36H25.5C24.2555 36 23.25 34.9945 23.25 33.75V25.65C21.5625 26.5148 19.65 27 17.625 27C15.6 27 13.6875 26.5148 12 25.65V33.75C12 34.9945 10.9945 36 9.75 36H7.5C6.25547 36 5.25 34.9945 5.25 33.75V17.5641C3.225 16.7977 1.63594 15.082 1.0875 12.8883L0.820316 11.7984C0.517972 10.5961 1.24922 9.37266 2.4586 9.07031C3.66797 8.76797 4.88438 9.49922 5.18672 10.7086L5.46094 11.7984C5.70703 12.7969 6.60703 13.5 7.64063 13.5H9.75H10.875H22.1109L30 18.007ZM33.375 5.625C33.375 5.32663 33.2565 5.04048 33.0455 4.82951C32.8345 4.61853 32.5484 4.5 32.25 4.5C31.9516 4.5 31.6655 4.61853 31.4545 4.82951C31.2435 5.04048 31.125 5.32663 31.125 5.625C31.125 5.92337 31.2435 6.20952 31.4545 6.42049C31.6655 6.63147 31.9516 6.75 32.25 6.75C32.5484 6.75 32.8345 6.63147 33.0455 6.42049C33.2565 6.20952 33.375 5.92337 33.375 5.625Z" fill="#2563EB"/>
</g>
<defs>
<clipPath id="clip0_1_498">
<path d="M0.75 0H41.25V36H0.75V0Z" fill="white"/>
</clipPath>
</defs>
</svg>
