<svg width="46" height="36" viewBox="0 0 46 36" fill="none" xmlns="http://www.w3.org/2000/svg">
<g clip-path="url(#clip0_1_370)">
<path d="M8.70312 0C6.83984 0 5.32812 1.51172 5.32812 3.375V6.75H1.95312C1.33437 6.75 0.828125 7.25625 0.828125 7.875C0.828125 8.49375 1.33437 9 1.95312 9H5.32812H19.9531C20.5719 9 21.0781 9.50625 21.0781 10.125C21.0781 10.7438 20.5719 11.25 19.9531 11.25H5.32812H4.20312C3.58437 11.25 3.07812 11.7562 3.07812 12.375C3.07812 12.9938 3.58437 13.5 4.20312 13.5H5.32812H17.7031C18.3219 13.5 18.8281 14.0062 18.8281 14.625C18.8281 15.2438 18.3219 15.75 17.7031 15.75H5.32812H1.95312C1.33437 15.75 0.828125 16.2562 0.828125 16.875C0.828125 17.4938 1.33437 18 1.95312 18H5.32812H15.4531C16.0719 18 16.5781 18.5062 16.5781 19.125C16.5781 19.7438 16.0719 20.25 15.4531 20.25H5.32812V29.25C5.32812 32.9766 8.35156 36 12.0781 36C15.8047 36 18.8281 32.9766 18.8281 29.25H27.8281C27.8281 32.9766 30.8516 36 34.5781 36C38.3047 36 41.3281 32.9766 41.3281 29.25H43.5781C44.8227 29.25 45.8281 28.2445 45.8281 27C45.8281 25.7555 44.8227 24.75 43.5781 24.75V20.25V18V16.6852C43.5781 15.4898 43.107 14.3438 42.2633 13.5L36.8281 8.06484C35.9844 7.22109 34.8383 6.75 33.643 6.75H30.0781V3.375C30.0781 1.51172 28.5664 0 26.7031 0H8.70312ZM39.0781 16.6852V18H30.0781V11.25H33.643L39.0781 16.6852ZM12.0781 25.875C12.9732 25.875 13.8317 26.2306 14.4646 26.8635C15.0975 27.4964 15.4531 28.3549 15.4531 29.25C15.4531 30.1451 15.0975 31.0036 14.4646 31.6365C13.8317 32.2694 12.9732 32.625 12.0781 32.625C11.183 32.625 10.3246 32.2694 9.69164 31.6365C9.0587 31.0036 8.70312 30.1451 8.70312 29.25C8.70312 28.3549 9.0587 27.4964 9.69164 26.8635C10.3246 26.2306 11.183 25.875 12.0781 25.875ZM31.2031 29.25C31.2031 28.3549 31.5587 27.4964 32.1916 26.8635C32.8246 26.2306 33.683 25.875 34.5781 25.875C35.4732 25.875 36.3317 26.2306 36.9646 26.8635C37.5975 27.4964 37.9531 28.3549 37.9531 29.25C37.9531 30.1451 37.5975 31.0036 36.9646 31.6365C36.3317 32.2694 35.4732 32.625 34.5781 32.625C33.683 32.625 32.8246 32.2694 32.1916 31.6365C31.5587 31.0036 31.2031 30.1451 31.2031 29.25Z" fill="#2563EB"/>
</g>
<defs>
<clipPath id="clip0_1_370">
<path d="M0.828125 0H45.8281V36H0.828125V0Z" fill="white"/>
</clipPath>
</defs>
</svg>
