<svg width="42" height="36" viewBox="0 0 42 36" fill="none" xmlns="http://www.w3.org/2000/svg">
<path d="M0.75 0H41.25V36H0.75V0Z" stroke="#E5E7EB"/>
<path d="M23.25 13.5H24.4523C26.0062 16.193 28.9172 18 32.25 18C33.0234 18 33.7828 17.9016 34.5 17.7188V18V20.25V33.75C34.5 34.9945 33.4945 36 32.25 36C31.0055 36 30 34.9945 30 33.75V23.85L20.4375 31.5H24.375C25.6195 31.5 26.625 32.5055 26.625 33.75C26.625 34.9945 25.6195 36 24.375 36H14.25C10.5234 36 7.49998 32.9766 7.49998 29.25V13.5352C7.49998 12.4031 6.65623 11.4398 5.53123 11.2992L4.97577 11.2289C3.7453 11.0742 2.86639 9.94922 3.02108 8.71875C3.17577 7.48828 4.30077 6.60937 5.53123 6.76406L6.0867 6.83437C9.4617 7.25625 12 10.125 12 13.5352V19.5328C14.4187 15.8977 18.5531 13.5 23.25 13.5ZM34.5 15.3633C33.7969 15.6094 33.0375 15.75 32.25 15.75C30.2531 15.75 28.4531 14.8781 27.2156 13.5C26.9555 13.2117 26.7234 12.9023 26.5195 12.5719C25.8726 11.5313 25.5 10.3078 25.5 9V2.25V0.84375V0.752344C25.5 0.3375 25.8305 0.00703125 26.2453 0H26.2594C26.4914 0 26.7094 0.1125 26.85 0.295312V0.302344L27.75 1.49766L29.6625 4.05L30 4.5H34.5L34.8375 4.05L36.75 1.49766L37.65 0.302344V0.295312C37.7906 0.1125 38.0086 0 38.2406 0H38.2547C38.6695 0.00703125 39 0.3375 39 0.752344V0.84375V2.25V9C39 10.2164 38.6765 11.3625 38.114 12.3469C37.3195 13.7391 36.0328 14.8219 34.5 15.3633ZM31.125 9C31.125 8.70163 31.0065 8.41548 30.7955 8.20451C30.5845 7.99353 30.2984 7.875 30 7.875C29.7016 7.875 29.4155 7.99353 29.2045 8.20451C28.9935 8.41548 28.875 8.70163 28.875 9C28.875 9.29837 28.9935 9.58452 29.2045 9.79549C29.4155 10.0065 29.7016 10.125 30 10.125C30.2984 10.125 30.5845 10.0065 30.7955 9.79549C31.0065 9.58452 31.125 9.29837 31.125 9ZM34.5 10.125C34.7984 10.125 35.0845 10.0065 35.2955 9.79549C35.5065 9.58452 35.625 9.29837 35.625 9C35.625 8.70163 35.5065 8.41548 35.2955 8.20451C35.0845 7.99353 34.7984 7.875 34.5 7.875C34.2016 7.875 33.9155 7.99353 33.7045 8.20451C33.4935 8.41548 33.375 8.70163 33.375 9C33.375 9.29837 33.4935 9.58452 33.7045 9.79549C33.9155 10.0065 34.2016 10.125 34.5 10.125Z" fill="#2563EB"/>
</svg>
